<svg width="280" height="280" viewBox="0 0 280 280" fill="none" xmlns="http://www.w3.org/2000/svg">
<g clip-path="url(#clip0_530_71768)">
<path d="M196.678 114.113C194.261 116.099 179.679 132.526 170.045 141.896C165.527 146.285 169.229 147.159 174.653 143.817C180.077 140.482 187.712 135.251 193.426 128.278C204.853 114.338 203.002 113.515 199.448 109.338C195.894 105.161 196.684 114.107 196.684 114.107L196.678 114.113Z" fill="#AC886B"/>
<path d="M185.219 72.3265C190.579 80.2121 171.375 82.9499 179.974 98.0591C185.816 108.323 196.073 88.509 196.073 88.509L197.905 81.2661L198.297 75.9126L197.108 69.3509L195.765 53.2841C200.489 53.7082 207.262 51.671 207.262 51.671C192.494 34.4923 175.752 58.3997 185.219 72.3265Z" fill="#161616"/>
<path d="M251.96 178.278C249.498 180.173 243.991 174.679 246.986 171.883C249.974 169.087 261.902 163.368 263.997 163.213C266.092 163.059 268.747 165.353 251.96 178.278Z" fill="#AC886B"/>
<path d="M193.445 244.158C197.712 245.167 197.853 253.978 197.5 259.062C197.243 262.738 195.398 263.612 194.396 263.817C194.029 263.895 193.676 263.676 193.547 263.323C192.365 259.968 186.504 242.513 193.445 244.152V244.158Z" fill="#AC886B"/>
<path d="M208.901 135.964C228.901 141.568 228.868 166.189 226.471 195.97C226.073 199.512 210.938 206.157 208.894 200.598C204.003 187.301 204.119 186.17 198.586 174.344C194.029 164.608 190.623 156.485 188.206 150.353C184.903 141.954 190.404 136.922 190.404 136.922L208.901 135.97V135.964Z" fill="#272747"/>
<path d="M210 192.082C221.902 183.162 229.511 180.084 252.519 167.571C252.519 167.571 256.079 167.841 256.838 176.864C251.266 180.482 237.377 193.779 221.484 204.235C209.653 212.024 205.919 195.135 210 192.082Z" fill="#272747"/>
<path d="M213.284 136.459C213.284 136.459 189.827 144.878 184.01 143.503C177.108 161.459 180.251 186.144 180.578 198.76C184.357 214.518 197.513 205.283 196.138 205.347C195.951 205.353 197.661 198.74 197.693 198.554C200.141 185.341 200.508 173.862 203.104 164.338C206.408 152.211 218.618 156.581 213.284 136.452V136.459Z" fill="#272747"/>
<path d="M180.585 198.76C181.639 217.719 189.03 241.568 189.023 250.129C189.023 250.309 194.563 250.585 197.577 247.68C197.738 247.526 197.809 247.288 197.789 247.063C195.887 226.176 199.126 213.882 197.108 201.17C197.076 200.983 188.702 195.99 180.591 198.753L180.585 198.76Z" fill="#272747"/>
<path fill-rule="evenodd" clip-rule="evenodd" d="M261.896 159.762C260.733 160.495 259.692 161.407 258.792 162.449C257.879 163.503 256.941 164.486 256.825 165.88C257.616 165.688 259.126 166.009 259.634 166.645C260.032 167.153 260.508 170.694 261.041 171.054C261.427 171.311 267.153 168.066 269.344 168.843C271.536 169.621 273.445 171.015 275.476 172.153C276.183 172.551 276.934 172.918 277.738 173.001C278.605 173.085 279.569 172.77 279.994 171.986V171.954L271.767 160.656C271.189 160.668 270.604 160.746 270.032 160.829C267.976 161.112 265.925 161.401 263.869 161.684C265.386 159.891 267.172 158.329 269.145 157.057L268.226 155.797L261.883 159.769L261.896 159.762Z" fill="#272747"/>
<path fill-rule="evenodd" clip-rule="evenodd" d="M200 265.835C200.147 263.715 199.935 261.562 199.158 259.589C199.081 259.389 198.991 259.19 198.881 259.004C198.624 258.548 197.988 258.477 197.635 258.862C197.165 259.377 196.497 259.826 195.97 259.846C195.353 259.871 192.339 258.233 191.754 258.445C191.336 258.599 190.617 264.871 188.772 266.125C186.928 267.384 184.768 268.072 182.744 269.01C182.037 269.338 181.33 269.704 180.809 270.289C180.25 270.913 179.955 271.838 180.321 272.616L180.347 272.629L193.335 272.641C193.592 272.641 193.843 272.513 193.978 272.294C194.196 271.941 194.402 271.568 194.595 271.202C195.199 270.077 195.797 268.952 196.401 267.834C196.741 267.192 197.718 267.352 197.821 268.072C198.001 269.325 198.078 270.598 198.046 271.864C198.033 272.294 198.374 272.654 198.804 272.654C199.203 272.654 199.537 272.346 199.563 271.947C199.704 269.916 199.852 267.879 199.993 265.848L200 265.835Z" fill="#272747"/>
<path d="M180.733 99.1967C179.929 107.442 189.428 129.338 189.486 129.177C189.544 129.017 189.756 113.22 189.756 113.22L188.252 100.784L180.739 99.1902L180.733 99.1967Z" fill="#AC886B"/>
<path d="M199.698 87.7957C200.592 87.6221 208.406 83.3098 208.406 83.3098C203.072 81.5167 196.543 81.8895 189.48 83.554C188.676 83.7404 185.63 85.8741 184.698 86.1633L199.705 87.7957H199.698Z" fill="#AC886B"/>
<path d="M184.306 101.382C182.519 101.395 179.749 100.649 179.782 99.3252C181.067 87.8985 184.306 84.4087 189.479 83.554C189.479 83.554 190.199 86.0026 196.575 86.0026C204.852 86.0026 206.163 81.7931 209.865 84.036C213.567 86.2789 211.311 90.964 213.58 102.481C215.848 113.997 201.183 122.847 218.888 141.6C213.496 143.226 190.591 149.036 183.663 145.238C186.099 131.324 187.095 132.764 187.102 121.877C187.102 114.267 183.149 108.066 184.306 101.388V101.382Z" fill="#F99090"/>
<path d="M209.949 100.681C209.949 101.53 204.743 124.312 208.914 127.474C215.122 132.185 221.677 105.308 219.736 101.864C217.796 98.4254 209.949 100.681 209.949 100.681Z" fill="#AC886B"/>
<path d="M206.324 83.3098C223.078 82.6478 221.427 105.116 221.427 105.116C221.427 105.116 213.805 106.317 208.406 105.829C203.008 105.347 204.132 92.3136 204.132 92.3136L206.324 83.3098Z" fill="#F99090"/>
<path d="M211.15 120.251C208.612 119.21 189.409 117.924 178.175 114.524C172.911 112.931 174.062 117.577 178.901 120.482C183.734 123.393 190.681 126.176 198.425 127.461C213.92 130.032 213.779 128.033 215.508 122.847C217.23 117.661 211.157 120.244 211.157 120.244L211.15 120.251Z" fill="#AC886B"/>
<path d="M201.247 70.527C196.247 76.9923 189.704 76.2339 188.252 68.419C187.005 61.7031 187.975 52.2622 195.816 53.3483C203.882 54.4602 202.384 60.1607 203.277 59.6915C204.171 59.2224 206.651 64.6016 201.247 70.527Z" fill="#AC886B"/>
<path d="M203.683 66.9409L204.39 81.9344L193.605 83.3804L195.585 71.9216L203.683 66.9409Z" fill="#AC886B"/>
<path d="M196.967 45.4498C205.881 44.5051 216.517 46.7031 214.39 68.3033C213.837 73.9138 215.521 76.3303 218.522 78.6439C228.972 86.6966 221.678 97.4357 216.343 100.039C200.508 107.744 189.396 94.4923 198.027 79.6208C199.448 77.1786 199.981 73.4511 202.886 68.1426C202.648 60.0192 196.183 62.3457 194.332 54.6658C191.967 54.0552 188.535 56.8637 187.892 61.4845C185.489 51.8766 189.043 46.2917 196.967 45.4498Z" fill="#161616"/>
<path d="M200.81 65.617C200.63 63.2648 203.799 59.428 204.93 61.7288C206.061 64.036 204.165 68.4897 201.903 68.2969C199.64 68.1041 200.81 65.617 200.81 65.617Z" fill="#AC886B"/>
<path d="M171.979 113.091L163.374 113.265C162.853 113.567 163.187 114.28 163.759 114.479C164.331 114.679 164.993 114.582 165.604 114.659C166.214 114.743 166.87 115.161 166.703 115.662C166.536 116.163 165.745 116.279 165.115 116.298C162.223 116.369 161.446 116.549 158.554 116.62C157.686 118.374 159.042 120.848 160.893 121.896C162.744 122.943 164.62 122.558 166.902 122.519C170.07 122.461 172.506 120.193 175.488 119.235C177.21 118.683 177.879 119.724 178.727 118.368C180.893 114.91 175.019 113.04 171.979 113.098V113.091Z" fill="#AC886B"/>
<path d="M170.668 149.344L164.434 155.283C163.856 155.437 163.586 154.692 163.85 154.145C164.113 153.605 164.653 153.207 165.032 152.718C165.411 152.23 165.578 151.472 165.109 151.234C164.64 150.996 163.991 151.472 163.535 151.902C161.433 153.888 160.559 155.09 158.457 157.076C156.607 156.44 157.654 153.676 158.226 151.626C158.805 149.576 160.109 148.2 161.754 146.626C164.049 144.434 166.041 143.933 168.837 142.513C170.45 141.697 170.193 140.482 171.748 140.848C175.72 141.78 172.866 147.243 170.662 149.344H170.668Z" fill="#AC886B"/>
<path d="M160.347 60.0771H154.216C153.74 58.5154 153.13 57.0309 152.371 55.617L156.703 51.2854C158.316 49.6723 158.316 47.0694 156.703 45.4563L152.423 41.1761C150.816 39.5694 148.207 39.5694 146.594 41.1761L142.256 45.5077C140.842 44.7494 139.357 44.1388 137.795 43.6633V37.5257C137.795 35.2507 135.951 33.4062 133.676 33.4062H127.622C125.347 33.4062 123.502 35.2507 123.502 37.5257V43.6568C121.941 44.1324 120.456 44.743 119.042 45.5013L114.711 41.1697C113.098 39.563 110.495 39.563 108.882 41.1697L104.601 45.4499C102.995 47.0566 102.995 49.6658 104.601 51.2789L108.933 55.6106C108.175 57.0244 107.564 58.509 107.089 60.0707H100.957C98.6824 60.0707 96.8379 61.9152 96.8379 64.1902V70.2442C96.8379 72.5193 98.6824 74.3638 100.957 74.3638H107.089C107.564 75.9255 108.175 77.41 108.933 78.8239L104.601 83.1555C102.995 84.7687 102.995 87.3715 104.601 88.9846L108.882 93.2648C110.488 94.8715 113.098 94.8715 114.711 93.2648L119.042 88.9332C120.456 89.6915 121.941 90.3021 123.502 90.7777V96.9088C123.502 99.1838 125.347 101.028 127.622 101.028H133.676C135.951 101.028 137.795 99.1838 137.795 96.9088V90.7777C139.357 90.3021 140.842 89.6915 142.256 88.9332L146.594 93.2712C148.2 94.8779 150.81 94.8779 152.423 93.2712L156.703 88.991C158.316 87.3779 158.316 84.7751 156.703 83.162L152.371 78.8304C153.13 77.4165 153.74 75.9319 154.216 74.3702H160.347C162.622 74.3702 164.466 72.5257 164.466 70.2507V64.1967C164.466 61.9216 162.622 60.0771 160.347 60.0771ZM130.649 78.9139C124.19 78.9139 118.959 73.6761 118.959 67.2237C118.959 60.7712 124.197 55.5334 130.649 55.5334C137.101 55.5334 142.339 60.7712 142.339 67.2237C142.339 73.6761 137.101 78.9139 130.649 78.9139Z" fill="#B1B1B1"/>
<path d="M185.424 16.0347H181.735C181.452 15.0964 181.079 14.2031 180.623 13.3548L183.226 10.7519C184.196 9.78149 184.196 8.21337 183.226 7.24936L180.655 4.67866C179.691 3.71465 178.117 3.71465 177.153 4.67866L174.543 7.28149C173.695 6.82519 172.802 6.45887 171.863 6.16967V2.47429C171.863 1.1054 170.752 0 169.389 0H165.752C164.383 0 163.277 1.11183 163.277 2.47429V6.16324C162.339 6.44602 161.446 6.81877 160.597 7.27506L157.995 4.67224C157.024 3.70823 155.456 3.70823 154.492 4.67224L151.921 7.24293C150.951 8.20694 150.951 9.78149 151.921 10.7455L154.524 13.3483C154.068 14.1967 153.701 15.09 153.412 16.0283H149.723C148.354 16.0283 147.249 17.1401 147.249 18.5026V22.1401C147.249 23.509 148.361 24.6144 149.723 24.6144H153.412C153.695 25.5527 154.068 26.446 154.524 27.2943L151.921 29.8972C150.951 30.8676 150.951 32.4357 151.921 33.3997L154.492 35.9704C155.462 36.9344 157.031 36.9344 157.995 35.9704L160.597 33.3676C161.446 33.8239 162.339 34.1902 163.277 34.4794V38.1684C163.277 39.5373 164.389 40.6427 165.752 40.6427H169.389C170.758 40.6427 171.863 39.5308 171.863 38.1684V34.4794C172.802 34.1967 173.695 33.8239 174.543 33.3676L177.153 35.9769C178.123 36.9409 179.691 36.9409 180.655 35.9769L183.226 33.4062C184.196 32.4357 184.196 30.8676 183.226 29.9036L180.623 27.3008C181.079 26.4524 181.446 25.5591 181.735 24.6208H185.424C186.793 24.6208 187.898 23.509 187.898 22.1465V18.509C187.898 17.1401 186.786 16.0347 185.424 16.0347ZM167.57 27.3586C163.689 27.3586 160.54 24.2095 160.54 20.3278C160.54 16.446 163.689 13.2969 167.57 13.2969C171.452 13.2969 174.601 16.446 174.601 20.3278C174.601 24.2095 171.452 27.3586 167.57 27.3586Z" fill="#B1B1B1"/>
<path d="M123.001 49.9421H122.519C122.008 49.9421 121.594 50.3565 121.594 50.8676V52.5578C121.594 53.0689 122.008 53.4833 122.519 53.4833H123.001C123.512 53.4833 123.927 53.0689 123.927 52.5578V50.8676C123.927 50.3565 123.512 49.9421 123.001 49.9421Z" fill="#CF7C75"/>
<path d="M130.778 49.9421H130.296C129.784 49.9421 129.37 50.3565 129.37 50.8676V52.5578C129.37 53.0689 129.784 53.4833 130.296 53.4833H130.778C131.289 53.4833 131.703 53.0689 131.703 52.5578V50.8676C131.703 50.3565 131.289 49.9421 130.778 49.9421Z" fill="#CF7C75"/>
<path d="M138.547 49.9421H138.065C137.554 49.9421 137.14 50.3565 137.14 50.8676V52.5578C137.14 53.0689 137.554 53.4833 138.065 53.4833H138.547C139.058 53.4833 139.473 53.0689 139.473 52.5578V50.8676C139.473 50.3565 139.058 49.9421 138.547 49.9421Z" fill="#CF7C75"/>
<path d="M147.243 58.9267C147.243 54.9421 144.011 51.7095 140.026 51.7095H121.041C117.057 51.7095 113.824 54.9421 113.824 58.9267V63.8303H147.243V58.9267Z" fill="url(#paint0_linear_530_71768)"/>
<path d="M113.824 63.8367V75.8933C113.824 79.8779 117.057 83.1105 121.041 83.1105H140.026C144.011 83.1105 147.243 79.8779 147.243 75.8933V63.8367H113.824Z" fill="url(#paint1_radial_530_71768)"/>
<path d="M130.598 75.829C128.271 75.829 126.202 74.5694 125.064 72.455C124.827 72.0115 124.994 71.4588 125.437 71.2146C125.88 70.9704 126.433 71.1439 126.677 71.5874C127.494 73.0976 128.959 74.0038 130.604 74.0038C132.147 74.0038 133.593 73.0976 134.467 71.5745C134.717 71.1375 135.276 70.9832 135.713 71.2339C136.15 71.4845 136.305 72.0437 136.054 72.4807C134.852 74.5758 132.815 75.829 130.611 75.829H130.598Z" fill="#1E1E1E"/>
<path d="M80.4177 122.256C85.0578 120.238 95.0064 103.805 95.784 100.906C98.2776 95.829 92.2365 98.6183 90.7969 100.72C88.4062 104.21 79.293 108.605 76.626 113.612C75.5141 116.414 75.7712 124.274 80.4113 122.256H80.4177Z" fill="#F8BE7E"/>
<path d="M68.3484 93.252C72.5708 93.4255 81.4525 113.156 82.3137 118.143C83.1749 123.13 76.9345 123.522 74.9808 122.012C68.7147 118.201 65.2571 106.992 59.0232 100.341C57.3715 98.5797 61.5618 93.5926 61.5618 93.5926L68.342 93.252H68.3484Z" fill="#F8BE7E"/>
<path d="M30.1803 147.603C26.2471 146.279 25.0068 147.204 25.1546 147.436C27.1919 150.611 18.3101 148.361 27.9309 150.9C31.2343 151.767 33.8885 150.996 33.8885 150.996C33.8885 150.996 34.544 149.075 30.1803 147.603Z" fill="#F8BE7E"/>
<path d="M16.9989 257.693L15.5207 259.428L14.7881 265.919L21.4783 265.797L22.6416 260.18L23.5734 255.688L16.9989 257.693Z" fill="#F8BE7E"/>
<path d="M22.3975 265.983C23.6765 270.919 23.3744 273.258 23.3744 273.258C23.3744 273.258 21.9862 275.032 18.4194 274.884L17.7317 272.969L17.0119 275.308C12.2497 278.772 3.7857 279.576 0.945088 279.165C-0.391673 278.496 -0.320979 277.802 1.23429 276.067C10.5402 273.541 9.7947 269.062 13.67 267.564C19.3127 265.386 22.3911 265.983 22.3911 265.983H22.3975Z" fill="#201E14"/>
<path fill-rule="evenodd" clip-rule="evenodd" d="M35.077 211.555C33.8495 214.094 32.185 216.96 29.7878 217.661C28.1297 218.143 23.4896 214.981 22.5642 213.715C21.6387 212.449 26.9536 152.564 29.0616 148.882C31.8894 143.946 52.4742 151.664 51.658 160.257C50.6169 171.24 45.6812 180.148 41.8958 191.022C39.6207 197.545 38.1105 205.257 35.0706 211.562L35.077 211.555Z" fill="#201E14"/>
<path fill-rule="evenodd" clip-rule="evenodd" d="M23.2779 204.499C26.4656 199.479 34.0877 196.073 37.2239 204.839C42.0119 218.207 26.4013 243.059 23.9977 259.152L15.7265 259.1C15.508 257.539 21.5106 207.288 23.2779 204.505V204.499Z" fill="#201E14"/>
<path d="M70.6042 257.558L71.4782 268.985L65.8034 269.087L63.1299 256.06L70.6042 257.558Z" fill="#F8BE7E"/>
<path d="M4.95518 126.472C5.04515 127.699 6.24695 130.778 7.39734 131.195C8.02716 131.42 8.74695 131.253 9.32536 130.906C9.90376 130.559 10.3665 130.045 10.8099 129.531C15.9963 123.58 17.693 115.231 21.9989 108.618C23.3228 106.587 24.6595 104.524 25.4243 102.23C26.1891 99.9357 26.3434 97.3457 25.3022 95.1864C24.7624 94.0552 23.5477 92.5514 22.1788 92.4293C21.0734 92.3329 19.7688 93.509 18.9269 94.081C15.9385 96.1182 15.0452 96.5295 12.7829 99.3573C11.4976 100.964 4.45389 119.647 4.95518 126.465V126.472Z" fill="#F8BE7E"/>
<path d="M38.8179 89.2288C39.6855 87.8085 40.5338 86.009 39.7048 84.563C38.8372 83.0399 43.7601 80.8933 42.0056 81.0347C20.8102 82.7121 16.003 92.5386 12.7832 99.3638L23.9529 108.072C30.1033 102.211 34.377 96.4717 38.8179 89.2288Z" fill="#297254"/>
<path d="M26.1248 147.423C26.0155 148.702 23.0271 150.09 21.7418 150.141C20.4564 150.193 7.89857 133.265 5.84202 129.248C5.21862 128.027 4.59523 126.575 5.19291 125.341C5.72633 124.235 7.04381 123.772 8.25204 123.567C10.2829 123.22 12.7572 123.188 14.7045 123.965C16.0477 124.499 16.2469 125.848 16.8574 127.012C19.0939 131.298 26.1955 146.6 26.1248 147.423Z" fill="#F8BE7E"/>
<path fill-rule="evenodd" clip-rule="evenodd" d="M9.39573 272.911C9.31219 271.459 9.66566 271.17 10.4947 270.225C11.5615 269.004 12.0693 267.082 13.2968 263.483C13.8559 261.838 17.1464 261.324 18.8495 264.107C19.4022 265.013 19.9099 265.591 20.5076 265.559C21.0088 265.533 21.5551 264.647 22.05 265.218C22.487 265.72 22.622 267.063 22.7505 268.014C22.969 269.659 22.3777 270.263 22.5834 271.915C22.6284 272.281 22.6734 272.661 22.6927 273.04L17.8919 271.227L9.72993 274.338C9.5564 273.94 9.4343 273.445 9.40216 272.898L9.39573 272.911Z" fill="#201E14"/>
<path fill-rule="evenodd" clip-rule="evenodd" d="M83.4701 274.197C78.1616 273.593 76.33 272.114 74.0614 269.248C73.0524 267.976 73.4894 268.393 72.1269 264.846C71.5035 263.22 69.8069 263.136 68.2066 265.977C67.686 266.902 67.339 267.339 66.7413 267.326C66.24 267.32 65.019 265.951 64.5498 266.536C64.4084 266.71 64.3056 266.986 64.2285 267.307V267.326C64.1963 267.436 64.1706 267.558 64.1513 267.68C63.1488 272.397 64.2606 274.479 64.2606 274.479C64.2606 274.479 64.3699 276.163 67.9303 275.887L69.1578 274.248L70.4688 276.742C75.2246 279.087 85.6552 278.213 88.483 277.699C88.4251 274.434 85.3917 274.415 83.4765 274.197H83.4701Z" fill="#201E14"/>
<path d="M63.6059 147.108C64.6277 149.171 68.3231 198.432 68.5737 202.924C68.3295 208.464 70.6046 257.558 70.6046 257.558L61.9542 258.58C59.5378 236.632 50.1676 218.631 54.602 203.67C46.3565 185.829 40.0326 168.67 40.0326 168.67C40.0326 168.67 31.4144 151.131 33.3617 148.278C35.3025 145.424 45.1676 145.418 45.1676 145.418L63.6123 147.108H63.6059Z" fill="#201E14"/>
<path d="M24.454 93.0591C22.7123 95.7327 21.8512 102.069 22.8537 104.987C25.9514 113.997 27.3589 115.347 28.792 121.812C30.2252 128.278 33.3357 138.779 30.1031 144.666C29.6661 145.463 29.1969 146.015 28.9527 146.857C28.5093 148.393 28.0658 149.582 28.7213 149.859C29.3383 150.122 61.6069 155.803 63.008 149.454C63.2908 148.181 63.6892 147.249 63.2715 146.112C60.4758 138.49 59.4925 126.819 61.7612 119.042C64.017 111.324 64.3383 108.522 62.8666 100.521C59.544 96.6131 55.1738 80.7905 41.999 81.0283C32.7573 81.1954 26.0028 90.6555 24.4476 93.0527L24.454 93.0591Z" fill="#297254"/>
<path d="M41.1628 89.6529C40.141 88.117 39.132 86.1568 39.9932 84.5244C40.8929 82.802 44.7168 81.446 46.6577 81.5745C58.425 82.3522 68.3351 88.7018 75.1988 97.9691L59.6461 110.893C52.6024 104.653 46.3685 97.5 41.1693 89.6594L41.1628 89.6529Z" fill="#297254"/>
<path fill-rule="evenodd" clip-rule="evenodd" d="M56.8639 63.0912C56.504 64.0617 55.7971 63.946 55.6428 62.937C55.1544 59.6979 55.1673 59.1709 53.175 56.5488C52.076 55.1092 51.7932 55.0193 52.4295 54.3444C54.5246 52.1079 59.8331 55.0642 56.8639 63.0912Z" fill="#01015B"/>
<path d="M41.7222 57.5257C44.2414 52.8663 51.0152 52.3586 54.3443 56.9152C57.3905 61.0861 56.78 71.2147 55.2569 73.5797C52.5898 77.7185 44.7877 74.9936 43.316 72.5386C41.1566 68.9396 39.6013 61.4396 41.7222 57.5257Z" fill="#F8BE7E"/>
<path fill-rule="evenodd" clip-rule="evenodd" d="M43.6889 58.5283C44.0295 59.2288 44.1066 69.3509 43.8174 69.2866C42.7827 69.0681 41.0475 66.5424 39.248 66.9859C38.676 67.1273 37.9434 67.6543 37.7056 66.491C36.1953 59.1581 35.9768 59.5823 37.1593 58.6633C39.775 56.6388 43.0784 57.2751 43.6825 58.5219L43.6889 58.5283Z" fill="#01015B"/>
<path fill-rule="evenodd" clip-rule="evenodd" d="M34.7812 55.4306C40.0061 50.0964 49.5563 46.671 52.7182 47.8213C57.429 49.5308 55.6295 57.2365 54.1064 57.9242C53.4123 58.2391 52.6411 57.7892 51.9406 57.4807C48.6308 56.0218 46.2851 58.0463 44.1514 58.8625C40.3725 60.3085 30.3275 59.9807 34.7748 55.437L34.7812 55.4306Z" fill="#01015B"/>
<path d="M37.4421 66.1568C37.5513 67.3651 38.149 68.5219 39.0745 69.3124C41.7223 71.5617 43.2197 67.5771 42.3071 65.4435C41.2146 62.8985 37.1464 62.8728 37.4421 66.1633V66.1568Z" fill="#D28642"/>
<path fill-rule="evenodd" clip-rule="evenodd" d="M56.8639 63.0912C56.504 64.0617 55.7971 63.946 55.6428 62.937C55.1544 59.6979 55.1673 59.1709 53.175 56.5488C52.076 55.1092 51.7932 55.0193 52.4295 54.3444C54.5246 52.1079 59.8331 55.0642 56.8639 63.0912Z" fill="#FF732C"/>
<path d="M48.3355 69.3573C46.3882 64.8265 42.6029 64.383 40.7327 65.9062C41.0412 75.0064 41.7738 75.8997 39.2031 81.3753C42.6479 87.0437 49.3638 86.311 51.1183 82.2044C51.0476 81.4846 49.3509 71.7031 48.3419 69.3573H48.3355Z" fill="#F8BE7E"/>
<path d="M41.7222 57.5257C44.2414 52.8663 51.0152 52.3586 54.3443 56.9152C57.3905 61.0861 56.78 71.2147 55.2569 73.5797C52.5898 77.7185 44.7877 74.9936 43.316 72.5386C41.1566 68.9396 39.6013 61.4396 41.7222 57.5257Z" fill="#F8BE7E"/>
<path fill-rule="evenodd" clip-rule="evenodd" d="M43.6889 58.5283C44.0295 59.2288 44.1066 69.3509 43.8174 69.2866C42.7827 69.0681 41.0475 66.5424 39.248 66.9859C38.676 67.1273 37.9434 67.6543 37.7056 66.491C36.1953 59.1581 35.9768 59.5823 37.1593 58.6633C39.775 56.6388 43.0784 57.2751 43.6825 58.5219L43.6889 58.5283Z" fill="#FF732C"/>
<path fill-rule="evenodd" clip-rule="evenodd" d="M34.7812 55.4306C40.0061 50.0964 49.5563 46.671 52.7182 47.8213C57.429 49.5308 55.6295 57.2365 54.1064 57.9242C53.4123 58.2391 52.6411 57.7892 51.9406 57.4807C48.6308 56.0218 46.2851 58.0463 44.1514 58.8625C40.3725 60.3085 30.3275 59.9807 34.7748 55.437L34.7812 55.4306Z" fill="#FF732C"/>
<path d="M37.4421 66.1568C37.5513 67.3651 38.149 68.5219 39.0745 69.3124C41.7223 71.5617 43.2197 67.5771 42.3071 65.4435C41.2146 62.8985 37.1464 62.8728 37.4421 66.1633V66.1568Z" fill="#F8BE7E"/>
<path d="M28.8561 158.644C22.153 156.851 21.5039 149.691 21.5039 149.691L26.3561 147.551C26.3561 147.551 26.7546 149.602 30.5785 150.662C34.2803 151.69 36.6132 160.72 28.8561 158.644Z" fill="#F8BE7E"/>
<path d="M96.2722 92.5642C97.956 89.0745 99.3828 88.8496 99.4406 89.1067C99.4985 89.3637 101.516 90.4434 99.9355 93.2198C98.3609 95.9897 96.1116 97.2558 96.1116 97.2558C96.1116 97.2558 94.4021 96.4396 96.2658 92.5642H96.2722Z" fill="#F8BE7E"/>
<path d="M94.274 98.7211C95.2316 98.8496 95.5336 100.546 96.2727 100.27C102.854 97.802 103.483 98.419 105.688 96.6452C109.582 93.5154 110.861 89.6208 107.931 88.7918C103.066 87.41 97.4166 93.4833 97.4166 93.4833C97.4166 93.4833 91.1699 100.591 94.2804 98.7275L94.274 98.7211Z" fill="#F8BE7E"/>
</g>
<defs>
<linearGradient id="paint0_linear_530_71768" x1="113.824" y1="57.7699" x2="147.243" y2="57.7699" gradientUnits="userSpaceOnUse">
<stop stop-color="#CA634B"/>
<stop offset="1" stop-color="#CF7C75"/>
</linearGradient>
<radialGradient id="paint1_radial_530_71768" cx="0" cy="0" r="1" gradientUnits="userSpaceOnUse" gradientTransform="translate(147.031 67.2365) scale(30.7841 30.7841)">
<stop stop-color="white"/>
<stop offset="0.45" stop-color="white"/>
<stop offset="0.46" stop-color="white"/>
<stop offset="0.62" stop-color="#FBFBFC"/>
<stop offset="0.77" stop-color="#EFEFF3"/>
<stop offset="0.93" stop-color="#DCDDE5"/>
<stop offset="1" stop-color="#D0D1DD"/>
</radialGradient>
<clipPath id="clip0_530_71768">
<rect width="280" height="279.254" fill="white"/>
</clipPath>
</defs>
</svg>
