<svg width="13" height="13" viewBox="0 0 13 13" fill="none" xmlns="http://www.w3.org/2000/svg">
<path d="M3.69875 0H3.30126C3.13488 0 3 0.177606 3 0.396694V1.60331C3 1.82239 3.13488 2 3.30126 2H3.69875C3.86512 2 4 1.82239 4 1.60331V0.396694C4 0.177606 3.86512 0 3.69875 0Z" fill="white"/>
<path d="M6.69874 0H6.30126C6.13488 0 6 0.177606 6 0.396694V1.60331C6 1.82239 6.13488 2 6.30126 2H6.69874C6.86512 2 7 1.82239 7 1.60331V0.396694C7 0.177606 6.86512 0 6.69874 0Z" fill="white"/>
<path d="M9.69875 0H9.30126C9.13488 0 9 0.177606 9 0.396694V1.60331C9 1.82239 9.13488 2 9.30126 2H9.69875C9.86512 2 10 1.82239 10 1.60331V0.396694C10 0.177606 9.86512 0 9.69875 0Z" fill="white"/>
<path d="M10.1921 1.5C11.4389 1.5 12.5 2.58172 12.5 3.97667V5.5H0.5V3.97667C0.5 2.58245 1.56051 1.50179 2.80828 1.5H10.1921Z" stroke="white"/>
<path d="M0.5 10.004V5.5H12.5V10.004C12.5 11.4146 11.4362 12.5 10.1921 12.5H2.80794C1.56405 12.5 0.5 11.4128 0.5 10.004Z" stroke="white"/>
<path d="M6.51651 9.99794C5.47939 9.99794 4.55751 9.46359 4.04874 8.57027C3.9422 8.38253 4.01612 8.14734 4.21398 8.04625C4.41184 7.94515 4.6597 8.0153 4.76624 8.20304C5.12934 8.8426 5.78379 9.22428 6.51651 9.22428C7.20575 9.22428 7.84933 8.84054 8.23852 8.19685C8.34941 8.01117 8.59944 7.94722 8.79513 8.0545C8.99081 8.15972 9.05821 8.39697 8.94515 8.58265C8.41028 9.46978 7.50145 10 6.51651 10V9.99794Z" fill="white"/>
</svg>
